<svg xmlns="http://www.w3.org/2000/svg" version="1.1" xmlns:xlink="http://www.w3.org/1999/xlink" xmlns:svgjs="http://svgjs.dev/svgjs" width="2000" height="1247" viewBox="0 0 2000 1247"><g transform="matrix(1,0,0,1,-1.2121212121212466,0.504858299595071)"><svg viewBox="0 0 396 247" data-background-color="#050816" preserveAspectRatio="xMidYMid meet" height="1247" width="2000" xmlns="http://www.w3.org/2000/svg" xmlns:xlink="http://www.w3.org/1999/xlink"><g id="tight-bounds" transform="matrix(1,0,0,1,0.2400000000000091,-0.09999999999999432)"><svg viewBox="0 0 395.52 247.2" height="247.2" width="395.52"><g><svg></svg></g><g><svg viewBox="0 0 395.52 247.2" height="247.2" width="395.52"><g transform="matrix(1,0,0,1,75.54432,103.81558981143316)"><svg viewBox="0 0 244.43135999999998 39.56882037713367" height="39.56882037713367" width="244.43135999999998"><g><svg viewBox="0 0 244.43135999999998 39.56882037713367" height="39.56882037713367" width="244.43135999999998"><g><svg viewBox="0 0 244.43135999999998 39.56882037713367" height="39.56882037713367" width="244.43135999999998"><g><svg viewBox="0 0 244.43135999999998 39.56882037713367" height="39.56882037713367" width="244.43135999999998"><g id="textblocktransform"><svg viewBox="0 0 244.43135999999998 39.56882037713367" height="39.56882037713367" width="244.43135999999998" id="textblock"><g><svg viewBox="0 0 244.43135999999998 39.56882037713367" height="39.56882037713367" width="244.43135999999998"><g transform="matrix(1,0,0,1,0,0)"><svg width="244.43135999999998" viewBox="0.5 -28.799999237060547 178.2072054633659 28.849998474121094" height="39.56882037713367" data-palette-color="#8c799e"><g transform="matrix(1,0,0,1,0,0)"><g><svg width="10.24480608365019" viewBox="2.5199999809265137 -36.86000061035156 60.39999771118164 37.36000061035156" height="6.336" data-palette-color="#8c799e" id="scriptelement" x="168.46240312246832" y="-28.799999237060547"><path d="M35.25-23.63L35.25-23.63 27.47-23.63Q27.25-25.14 26.6-26.32 25.94-27.5 24.91-28.34 23.88-29.17 22.54-29.62 21.2-30.06 19.64-30.06L19.64-30.06Q16.81-30.06 14.72-28.67 12.62-27.27 11.47-24.62 10.32-21.96 10.32-18.18L10.32-18.18Q10.32-14.29 11.48-11.65 12.64-9 14.74-7.65 16.83-6.3 19.58-6.3L19.58-6.3Q21.13-6.3 22.45-6.71 23.77-7.12 24.8-7.91 25.83-8.7 26.52-9.84 27.2-10.97 27.47-12.43L27.47-12.43 35.25-12.39Q34.94-9.89 33.74-7.57 32.55-5.26 30.53-3.44 28.52-1.62 25.74-0.56 22.96 0.5 19.46 0.5L19.46 0.5Q14.6 0.5 10.77-1.7 6.94-3.91 4.73-8.08 2.52-12.25 2.52-18.18L2.52-18.18Q2.52-24.13 4.76-28.3 7-32.48 10.83-34.67 14.67-36.86 19.46-36.86L19.46-36.86Q22.62-36.86 25.33-35.97 28.04-35.09 30.13-33.39 32.23-31.69 33.55-29.24 34.87-26.79 35.25-23.63ZM55.32-11.01L55.32-36.36 62.92-36.36 62.92-11.01Q62.92-7.49 61.35-4.9 59.78-2.31 56.99-0.91 54.21 0.5 50.51 0.5L50.51 0.5Q47.23 0.5 44.56-0.67 41.88-1.83 40.32-4.22 38.76-6.61 38.78-10.23L38.78-10.23 46.43-10.23Q46.46-8.79 47.02-7.77 47.58-6.75 48.57-6.21 49.55-5.66 50.9-5.66L50.9-5.66Q52.32-5.66 53.31-6.28 54.29-6.89 54.81-8.08 55.32-9.27 55.32-11.01L55.32-11.01Z" opacity="1" transform="matrix(1,0,0,1,0,0)" fill="#8c799e" class="undefined-123" data-fill-palette-color="primary" id="p-123"></path></svg></g></g><path d="M34.95-28.75L34.95-3.4 29.3 0 18.95 0 18.95-5.65 28.65-5.65 28.65-28.75 34.95-28.75ZM0.5-9.1L7-9.1 7-5.65 16.5-5.65 16.5 0 6.35 0 0.5-3.4 0.5-9.1ZM69.65-21.85L69.65 0 63.4 0 63.4-2.25 55.9 0 55.9-5.25 63.4-5.25 63.4-21.85 69.65-21.85ZM39.85-21.85L39.85-3.45 45.5 0 53.6 0 53.6-5.25 46.15-5.25 46.15-21.85 39.85-21.85ZM79.65 0L79.65-28.8 85.95-28.8 85.95-21.9 93.45-21.9 93.45-17.25 85.95-17.25 85.95-5.25 93.25-5.25 93.25 0 79.65 0ZM109.45-3.45L109.45-18.45 103.75-21.9 95.65-21.9 95.65-17.25 103.35-17.25 103.35-5.25 95.85-5.25 95.85 0 103.75 0 109.45-3.45ZM117.44-3.4L117.44-9.75 123.14-13.2 131.34-13.2 131.34-9.35 123.79-9.35 123.79-5.25 131.34-5.25 131.34 0.05 123.14 0.05 117.44-3.4ZM123.79-15.05L117.44-15.05 117.44-18.5 123.14-22 131.34-22 131.34-17.3 123.79-17.3 123.79-15.05ZM147.44 0.05L147.44-18.5 141.74-22 133.54-22 133.54-17.3 141.09-17.3 141.09-13.2 133.54-13.2 133.54-9.35 141.09-9.35 141.09-5.25 133.74-5.25 133.74 0.05 147.44 0.05ZM156.94 0.05L156.94-28.75 163.34-28.75 163.34 0.05 156.94 0.05Z" opacity="1" transform="matrix(1,0,0,1,0,0)" fill="#8c799e" class="undefined-text-0" data-fill-palette-color="primary" id="text-0"></path></svg></g></svg></g></svg></g></svg></g></svg></g></svg></g></svg></g><g><path d="M0 123.6c0-68.262 55.338-123.6 123.6-123.6 59.89 0 109.832 42.596 121.181 99.145l-1.821 0c-11.322-55.557-60.459-97.361-119.36-97.361-67.277 0-121.816 54.539-121.816 121.816 0 67.277 54.539 121.816 121.816 121.816 58.901 0 108.038-41.804 119.36-97.361l1.821 0c-11.349 56.549-61.291 99.145-121.181 99.145-68.262 0-123.6-55.338-123.6-123.6z" fill="#73657e" stroke="transparent" data-fill-palette-color="tertiary"></path></g></svg></g><defs></defs></svg><rect width="395.52" height="247.2" fill="none" stroke="none" visibility="hidden"></rect></g></svg></g></svg>